<?xml version="1.0" encoding="UTF-8" standalone="no"?>
<!-- Created with Inkscape (http://www.inkscape.org/) -->

<svg
   xmlns:dc="http://purl.org/dc/elements/1.1/"
   xmlns:cc="http://creativecommons.org/ns#"
   xmlns:rdf="http://www.w3.org/1999/02/22-rdf-syntax-ns#"
   xmlns:svg="http://www.w3.org/2000/svg"
   xmlns="http://www.w3.org/2000/svg"
   xmlns:sodipodi="http://sodipodi.sourceforge.net/DTD/sodipodi-0.dtd"
   xmlns:inkscape="http://www.inkscape.org/namespaces/inkscape"
   width="210mm"
   height="297mm"
   viewBox="0 0 210 297"
   version="1.1"
   id="svg8"
   inkscape:version="0.92.3 (2405546, 2018-03-11)"
   sodipodi:docname="logoinicial.svg">
  <defs
     id="defs2" />
  <sodipodi:namedview
     id="base"
     pagecolor="#ffffff"
     bordercolor="#666666"
     borderopacity="1.0"
     inkscape:pageopacity="0.0"
     inkscape:pageshadow="2"
     inkscape:zoom="0.49497475"
     inkscape:cx="170.81282"
     inkscape:cy="562.43447"
     inkscape:document-units="mm"
     inkscape:current-layer="layer1"
     showgrid="false"
     inkscape:snap-text-baseline="true"
     inkscape:window-width="1366"
     inkscape:window-height="705"
     inkscape:window-x="-8"
     inkscape:window-y="-8"
     inkscape:window-maximized="1" />
  <metadata
     id="metadata5">
    <rdf:RDF>
      <cc:Work
         rdf:about="">
        <dc:format>image/svg+xml</dc:format>
        <dc:type
           rdf:resource="http://purl.org/dc/dcmitype/StillImage" />
        <dc:title></dc:title>
      </cc:Work>
    </rdf:RDF>
  </metadata>
  <g
     inkscape:label="Capa 1"
     inkscape:groupmode="layer"
     id="layer1">
    <text
       xml:space="preserve"
       style="font-style:normal;font-weight:normal;font-size:10.58333302px;line-height:47.25000381;font-family:sans-serif;letter-spacing:0px;word-spacing:0px;fill:#000000;fill-opacity:1;stroke:none;stroke-width:0.26458332"
       x="60.476189"
       y="99.696426"
       id="text7647"><tspan
         sodipodi:role="line"
         id="tspan7645"
         x="60.476189"
         y="352.76862"
         style="line-height:47.25000381;stroke-width:0.26458332" /></text>
    <path
       style="font-style:normal;font-weight:normal;font-size:117.05814362px;line-height:10058.47460938px;font-family:sans-serif;letter-spacing:0px;word-spacing:0px;fill:#008080;fill-opacity:1;stroke:none;stroke-width:0.60967779"
       d="m 57.901462,83.808202 v 10.010243 h 16.243453 v 55.054005 c 0,3.2099 -0.137351,6.03923 -0.412377,8.48889 -0.240647,2.44965 -0.825169,4.5195 -1.753381,6.20892 -0.893833,1.64718 -2.286206,2.91437 -4.177006,3.80132 -1.856425,0.88694 -4.365945,1.33015 -7.52874,1.33015 -2.165826,0 -4.280074,-0.3168 -6.342766,-0.95033 -2.062691,-0.63353 -3.798961,-1.2458 -5.208465,-1.8371 h -0.56741 v 11.72022 c 1.856425,0.50682 4.159917,0.92922 6.910173,1.2671 2.750257,0.38012 4.950476,0.56999 6.600632,0.56999 6.910017,0 12.410829,-2.23839 16.501835,-6.71535 4.125383,-4.47696 6.187736,-10.85452 6.187736,-19.13268 V 83.808202 Z m 46.358928,0 v 94.333258 h 10.21023 V 142.9803 h 10.21023 c 5.50051,0 10.0556,-0.80265 13.66531,-2.4076 3.60972,-1.64719 6.73835,-4.09677 9.38548,-7.34891 2.13145,-2.6186 3.78122,-5.70178 4.95008,-9.24956 1.20324,-3.59002 1.80506,-7.47534 1.80506,-11.65665 0,-5.49062 -0.80785,-10.03086 -2.42363,-13.620879 -1.58139,-3.590018 -3.83299,-6.588927 -6.75514,-8.996352 -2.47523,-2.027304 -5.31187,-3.50569 -8.50904,-4.434869 -3.19717,-0.971418 -7.09907,-1.457278 -11.70574,-1.457278 z m 10.21023,10.770402 h 10.10687 c 3.23156,0 5.89624,0.295471 7.99332,0.886769 2.13144,0.549061 4.02236,1.478127 5.67252,2.787426 1.8908,1.520478 3.29995,3.484721 4.22816,5.892151 0.92821,2.40742 1.39268,5.23727 1.39268,8.4894 0,2.78754 -0.3439,5.30059 -1.03146,7.53907 -0.65319,2.23849 -1.78763,4.37128 -3.40341,6.39858 -1.61578,1.98507 -3.71324,3.44213 -6.2916,4.37131 -2.57837,0.88695 -5.92982,1.33015 -10.0552,1.33015 h -8.61188 z"
       id="text7651"
       inkscape:connector-curvature="0" />
    <flowRoot
       xml:space="preserve"
       id="flowRoot7655"
       style="font-style:normal;font-weight:normal;font-size:40px;line-height:1.25;font-family:sans-serif;letter-spacing:0px;word-spacing:0px;fill:#000000;fill-opacity:1;stroke:none"
       transform="scale(0.26458333)"><flowRegion
         id="flowRegion7657"><rect
           id="rect7659"
           width="97.14286"
           height="148.57143"
           x="457.14285"
           y="399.66254" /></flowRegion><flowPara
         id="flowPara7661"></flowPara></flowRoot>    <path
       style="color:#000000;font-style:normal;font-variant:normal;font-weight:normal;font-stretch:normal;font-size:medium;line-height:normal;font-family:sans-serif;font-variant-ligatures:normal;font-variant-position:normal;font-variant-caps:normal;font-variant-numeric:normal;font-variant-alternates:normal;font-feature-settings:normal;text-indent:0;text-align:start;text-decoration:none;text-decoration-line:none;text-decoration-style:solid;text-decoration-color:#000000;letter-spacing:normal;word-spacing:normal;text-transform:none;writing-mode:lr-tb;direction:ltr;text-orientation:mixed;dominant-baseline:auto;baseline-shift:baseline;text-anchor:start;white-space:normal;shape-padding:0;clip-rule:nonzero;display:inline;overflow:visible;visibility:visible;opacity:1;isolation:auto;mix-blend-mode:normal;color-interpolation:sRGB;color-interpolation-filters:linearRGB;solid-color:#000000;solid-opacity:1;vector-effect:none;fill:#000000;fill-opacity:1;fill-rule:nonzero;stroke:none;stroke-width:0.31821132;stroke-linecap:butt;stroke-linejoin:miter;stroke-miterlimit:4;stroke-dasharray:none;stroke-dashoffset:0;stroke-opacity:1;color-rendering:auto;image-rendering:auto;shape-rendering:auto;text-rendering:auto;enable-background:accumulate"
       d="M 19.645975,63.808205 V 63.969821 207.32948 H 181.87627 V 63.808205 Z m 0.313047,0.323231 H 181.56071 l 0.31556,143.198044 -161.917248,-0.32135 z"
       id="path7814"
       inkscape:connector-curvature="0"
       sodipodi:nodetypes="ccccccccccc" />
    <path
       style="color:#000000;font-style:normal;font-variant:normal;font-weight:normal;font-stretch:normal;font-size:medium;line-height:normal;font-family:sans-serif;font-variant-ligatures:normal;font-variant-position:normal;font-variant-caps:normal;font-variant-numeric:normal;font-variant-alternates:normal;font-feature-settings:normal;text-indent:0;text-align:start;text-decoration:none;text-decoration-line:none;text-decoration-style:solid;text-decoration-color:#000000;letter-spacing:normal;word-spacing:normal;text-transform:none;writing-mode:lr-tb;direction:ltr;text-orientation:mixed;dominant-baseline:auto;baseline-shift:baseline;text-anchor:start;white-space:normal;shape-padding:0;clip-rule:nonzero;display:inline;overflow:visible;visibility:visible;opacity:1;isolation:auto;mix-blend-mode:normal;color-interpolation:sRGB;color-interpolation-filters:linearRGB;solid-color:#000000;solid-opacity:1;vector-effect:none;fill-opacity:1;fill-rule:nonzero;stroke:none;stroke-width:0.52250302;stroke-linecap:butt;stroke-linejoin:miter;stroke-miterlimit:4;stroke-dasharray:none;stroke-dashoffset:0;stroke-opacity:1;color-rendering:auto;image-rendering:auto;shape-rendering:auto;text-rendering:auto;enable-background:accumulate;fill:#666666"
       d="m 101.05206,65.902793 c -43.61687,-1.8e-5 -78.974199,31.177659 -78.974201,69.624237 2e-6,38.44659 35.357331,69.62067 78.974201,69.62067 43.61687,0 78.97836,-31.17408 78.97836,-69.62067 0,-38.446578 -35.36149,-69.624255 -78.97836,-69.624237 z m 0,0.489011 c 43.30962,0 78.4198,30.948175 78.4198,69.135226 0,38.18707 -35.11018,69.13525 -78.4198,69.13525 -43.309609,0 -78.415653,-30.94818 -78.415656,-69.13525 3e-6,-38.187051 35.106047,-69.135226 78.415656,-69.135226 z"
       id="path7817"
       inkscape:connector-curvature="0" />
  </g>
</svg>
